<?xml version="1.0" encoding="utf-8"?>
<!-- Generator: Adobe Illustrator 23.0.2, SVG Export Plug-In . SVG Version: 6.00 Build 0)  -->
<svg version="1.1" id="logo_1" xmlns="http://www.w3.org/2000/svg" xmlns:xlink="http://www.w3.org/1999/xlink" x="0px" y="0px"
	 viewBox="0 0 193 76" height="60px" enable-background="new 0 0 193 76" xml:space="preserve">
<g>
	<path d="M8.11,48.43l1.32-1.61c1.68,1.45,6.06,2.72,9.12,2.72c4.62,0,7.8-2.5,7.8-6.06c0-3.67-4.56-5.67-8.76-7.17
		c-5.88-2.33-9.48-3.89-9.36-8.84c0.06-4.73,4.5-7.84,10.44-7.78c3.36,0.06,6.24,1.06,9.06,2.56l-1.2,1.67
		c-0.84-0.33-3.42-1.83-7.74-1.89c-4.56,0-7.56,2-7.74,5.39c-0.18,3.84,3.66,5.12,7.8,6.62c5.76,2.22,10.38,4.5,10.38,9.4
		c0,5-4.38,8.45-10.44,8.45C13.21,51.88,8.83,49.21,8.11,48.43z"/>
	<path d="M60.73,28.97c0,4.84-3.84,8.45-9.72,8.45h-9.36V51.6h-2.76V20.01h12.42C56.95,20.01,60.73,24.18,60.73,28.97z M58.09,28.91
		c0-3.61-2.88-6.62-7.26-6.62h-9.18v12.84h9.6C55.27,35.14,58.09,32.58,58.09,28.91z"/>
	<path d="M70.57,20.01h2.76v29.14h17.46v2.45H70.57V20.01z"/>
	<path d="M116.23,40.92h-14.04L97.75,51.6h-2.82l13.08-31.58h2.4l13.08,31.58h-2.88L116.23,40.92z M115.27,38.59l-6.06-14.62
		l-6.06,14.62H115.27z"/>
	<path d="M128.53,48.43l1.32-1.61c1.68,1.45,6.06,2.72,9.12,2.72c4.62,0,7.8-2.5,7.8-6.06c0-3.67-4.56-5.67-8.76-7.17
		c-5.88-2.33-9.48-3.89-9.36-8.84c0.06-4.73,4.5-7.84,10.44-7.78c3.36,0.06,6.24,1.06,9.06,2.56l-1.2,1.67
		c-0.84-0.33-3.42-1.83-7.74-1.89c-4.56,0-7.56,2-7.74,5.39c-0.18,3.84,3.66,5.12,7.8,6.62c5.76,2.22,10.38,4.5,10.38,9.4
		c0,5-4.38,8.45-10.44,8.45C133.63,51.88,129.25,49.21,128.53,48.43z"/>
	<path d="M183.85,20.01V51.6h-2.7V36.25h-19.14V51.6h-2.7V20.01h2.7v13.9h19.14v-13.9H183.85z"/>
</g>
<g>
	<path d="M14.41,64.33h-1.82v3.12h-0.6V60.5h2.69c1.22,0,2.04,0.92,2.04,1.97c0,0.94-0.65,1.68-1.69,1.83l2.04,3.15h-0.64
		L14.41,64.33z M12.58,63.83h2.08c0.87,0,1.48-0.56,1.48-1.37c0-0.79-0.62-1.46-1.57-1.46h-1.99V63.83z"/>
	<path d="M22.34,65.1h-3.04l-0.96,2.35h-0.61l2.83-6.95h0.52l2.83,6.95h-0.62L22.34,65.1z M22.13,64.59l-1.31-3.22l-1.31,3.22H22.13
		z"/>
	<path d="M28.02,64.33H26.2v3.12h-0.6V60.5h2.69c1.22,0,2.04,0.92,2.04,1.97c0,0.94-0.65,1.68-1.69,1.83l2.04,3.15h-0.64
		L28.02,64.33z M26.2,63.83h2.08c0.87,0,1.48-0.56,1.48-1.37c0-0.79-0.62-1.46-1.57-1.46H26.2V63.83z"/>
	<path d="M36.7,66.92v0.54h-4.38V60.5h4.34v0.55h-3.74v2.57h3.09v0.51h-3.09v2.78H36.7z"/>
	<path d="M38.74,66.69h0.64v0.76h-0.64V66.69z"/>
	<path d="M51.56,60.5v6.96h-0.52l-4.5-5.92v5.91h-0.6V60.5h0.49l4.52,5.95V60.5H51.56z"/>
	<path d="M54.24,60.5h0.58v6.95h-0.58V60.5z"/>
	<path d="M56.9,66.76l0.29-0.36c0.36,0.32,1.31,0.6,1.98,0.6c1,0,1.69-0.55,1.69-1.33c0-0.81-0.99-1.25-1.9-1.58
		c-1.27-0.51-2.05-0.86-2.03-1.95c0.01-1.04,0.98-1.72,2.26-1.71c0.73,0.01,1.35,0.23,1.96,0.56l-0.26,0.37
		c-0.18-0.07-0.74-0.4-1.68-0.42c-0.99,0-1.64,0.44-1.68,1.19c-0.04,0.84,0.79,1.13,1.69,1.46c1.25,0.49,2.25,0.99,2.25,2.07
		c0,1.1-0.95,1.86-2.26,1.86C58.01,67.51,57.06,66.93,56.9,66.76z"/>
	<path d="M68.89,60.5v6.95H68.3v-3.38h-4.15v3.38h-0.59V60.5h0.59v3.06h4.15V60.5H68.89z"/>
	<path d="M75.95,66.92v0.54h-4.38V60.5h4.34v0.55h-3.74v2.57h3.09v0.51h-3.09v2.78H75.95z"/>
	<path d="M85.75,66.12l1.05,1.13l-0.39,0.34l-0.98-1.08c-0.56,0.67-1.34,1.11-2.21,1.11c-1.21,0-2.12-0.83-2.12-1.95
		c0-1.06,0.91-1.85,1.63-2.23c-0.55-0.7-0.72-1.08-0.72-1.52c0-0.82,0.6-1.41,1.39-1.41c0.86,0,1.38,0.67,1.38,1.33
		c0,0.76-0.74,1.3-1.33,1.65l1.98,2.25c0.34-0.44,0.58-0.97,0.82-1.54l0.4,0.26C86.42,65.05,86.15,65.53,85.75,66.12z M85.11,66.13
		l-2.05-2.31c-0.65,0.32-1.39,0.96-1.39,1.84c0,0.86,0.66,1.5,1.6,1.5C83.9,67.16,84.58,66.82,85.11,66.13z M84.29,61.87
		c0-0.45-0.31-0.92-0.9-0.92c-0.58,0-0.9,0.46-0.9,0.94c0,0.37,0.18,0.7,0.68,1.33C83.67,62.88,84.29,62.51,84.29,61.87z"/>
	<path d="M92.62,60.5h0.6v6.41h3.78v0.54h-4.38V60.5z"/>
	<path d="M98.89,65.04V60.5h0.6v4.58c0,0.98,0.97,1.84,2.2,1.84c1.22,0,2.17-0.87,2.17-1.84V60.5h0.6v4.54
		c0,1.59-1.57,2.45-2.78,2.45C100.42,67.49,98.89,66.63,98.89,65.04z"/>
	<path d="M111.99,67.45l-2.54-3.05l-2.55,3.05h-0.77l2.93-3.5l-2.87-3.45h0.75l2.51,3l2.5-3h0.77l-2.89,3.45l2.93,3.5H111.99z"/>
	<path d="M122.91,62.47c0,1.06-0.83,1.86-2.11,1.86h-2.03v3.12h-0.6V60.5h2.69C122.09,60.5,122.91,61.42,122.91,62.47z
		 M122.34,62.46c0-0.79-0.62-1.46-1.57-1.46h-1.99v2.83h2.08C121.73,63.83,122.34,63.27,122.34,62.46z"/>
	<path d="M129.43,66.92v0.54h-4.38V60.5h4.34v0.55h-3.74v2.57h3.09v0.51h-3.09v2.78H129.43z"/>
	<path d="M133.73,64.33h-1.82v3.12h-0.6V60.5H134c1.22,0,2.04,0.92,2.04,1.97c0,0.94-0.65,1.68-1.69,1.83l2.04,3.15h-0.64
		L133.73,64.33z M131.91,63.83h2.08c0.87,0,1.48-0.56,1.48-1.37c0-0.79-0.62-1.46-1.57-1.46h-1.99V63.83z"/>
	<path d="M138.63,61.05v2.57h3.09v0.51h-3.09v3.32h-0.6V60.5h4.34v0.55H138.63z"/>
	<path d="M144.26,65.04V60.5h0.6v4.58c0,0.98,0.97,1.84,2.2,1.84c1.22,0,2.17-0.87,2.17-1.84V60.5h0.6v4.54
		c0,1.59-1.57,2.45-2.78,2.45C145.79,67.49,144.26,66.63,144.26,65.04z"/>
	<path d="M159.65,60.5v6.95h-0.58l-0.01-5.9l-2.77,3.65h-0.42l-2.78-3.67l0.01,5.92h-0.6V60.5h0.48l3.09,4.06l3.09-4.06H159.65z"/>
	<path d="M166.71,66.92v0.54h-4.38V60.5h4.34v0.55h-3.74v2.57h3.09v0.51h-3.09v2.78H166.71z"/>
	<path d="M171.01,64.33h-1.82v3.12h-0.6V60.5h2.69c1.22,0,2.04,0.92,2.04,1.97c0,0.94-0.65,1.68-1.69,1.83l2.04,3.15h-0.64
		L171.01,64.33z M169.19,63.83h2.08c0.87,0,1.48-0.56,1.48-1.37c0-0.79-0.62-1.46-1.57-1.46h-1.99V63.83z"/>
	<path d="M177.66,64.63v2.83h-0.6v-2.84l-2.73-4.11h0.69l2.35,3.56l2.34-3.56h0.71L177.66,64.63z"/>
</g>
</svg>
